<?xml version="1.0" encoding="utf-8"?>
<!-- Generator: Adobe Illustrator 26.0.1, SVG Export Plug-In . SVG Version: 6.00 Build 0)  -->
<svg version="1.1" id="Layer_1" xmlns="http://www.w3.org/2000/svg" xmlns:xlink="http://www.w3.org/1999/xlink" x="0px" y="0px"
	 viewBox="0 0 612 792" style="enable-background:new 0 0 612 792;" xml:space="preserve">
<style type="text/css">
	.st0{fill:#009444;}
	.st1{fill:#006838;stroke:#000000;stroke-width:0.5;stroke-miterlimit:10;}
	.st2{fill:#006838;stroke:#000000;stroke-width:0.5;stroke-miterlimit:9.9998;}
	.st3{fill:#2DB34A;stroke:#000000;stroke-width:0.5;stroke-miterlimit:9.9998;}
	.st4{fill:#85C441;stroke:#00A651;stroke-width:0.25;stroke-miterlimit:10;}
	.st5{fill:#9DCE70;}
</style>
<circle class="st0" cx="314" cy="360" r="256.9"/>
<path class="st1" d="M475.9,261.5l-134.8-77.8c-8.4-4.8-19-2-23.8,6.4L172.6,441c-4.8,8.4-2,19,6.4,23.8l134.6,77.8
	c8.4,4.8,19,2,23.8-6.4l144.9-250.9C487,276.9,484.2,266.4,475.9,261.5z"/>
<rect x="399.4" y="182.2" transform="matrix(0.5 -0.866 0.866 0.5 19.853 459.2991)" class="st2" width="16.5" height="60.5"/>
<rect x="274.6" y="351.1" transform="matrix(0.5 -0.866 0.866 0.5 -219.3026 465.3014)" class="st3" width="37.4" height="143"/>
<rect x="296.1" y="311.9" transform="matrix(0.5 -0.866 0.866 0.5 -174.6176 464.303)" class="st3" width="37.4" height="143"/>
<rect x="252.1" y="390" transform="matrix(0.5 -0.866 0.866 0.5 -264.2554 465.2472)" class="st3" width="37.4" height="143"/>
<rect x="319.2" y="273.4" transform="matrix(0.5 -0.866 0.866 0.5 -129.7249 465.0584)" class="st3" width="37.4" height="143"/>
<rect x="341.2" y="234.9" transform="matrix(0.5 -0.866 0.866 0.5 -85.3823 464.8612)" class="st3" width="37.4" height="143"/>
<g>
	<path class="st4" d="M300.8,452.3c-19.9,1-39.8,0.4-59.6-1.6c-5.5-0.5-10.9-1.2-16.3-2.4c-35.4-7.9-63.2-38.2-74.6-72.7
		s-7.6-72.5,3.4-107.1c1.5-4.7,3.2-9.5,4.2-14.3c0.9-4.1,1.2-8.1,2.2-12.2c1.7-6.6,4.7-12.8,7.8-18.8c5.6-11,11.2-21.9,16.8-32.9
		c-1.5,4.8,1.8,9.7,5.4,13.2c7.3,7.2,16.2,12.2,25.1,17.2c5.9,3.4,12,6.7,17.9,10.1c34,19.1,69.6,39.8,88.6,74
		c8.1,14.8,12.8,31.6,13.2,48.5c0.2,6.9-0.3,14-1.1,20.9c-2.9,27.1-9.7,54.9-27.4,75.6L300.8,452.3z"/>
	<path class="st5" d="M201.5,312.8c-0.4,0.1-1.2,0.2-2.2,0.3c-3.6,0.3-6.7-1-8.8-2.1c-6.2-3.3-10.5-8.4-20.9-18.8
		c-1-1-1.9-1.8-2.3-2.3c2,3.7,3.5,5.6,4.5,6.7c0,0,0,0,3.3,3.3c0.3,0.3,0.8,0.8,1.1,1.1c0.8,0.8,1.4,1.4,2.2,2.2
		c1.1,1.1,2.2,2.2,3.3,3.3c2.2,2.2,2.2,2.2,2.2,2.2c2.8,2.8,6.5,4.6,7.7,5.2c5.7,2.9,8.5,2.3,11.9,4.8c0.9,0.7,2.6,2,3.5,4.3
		c0.2,0.6,0.1,0.7,0.4,1.4c0.6,1.4,1,1.9,2.3,4.2c0,0.1,0.5,1.1,1.6,3.2c0.2,0.4,0.4,0.9,0.7,1.7c0.2,0.9,0.3,2,0,2
		c-4.4,0.9-9,0.8-13.4-0.3c-2.3-0.6-8.2-2.4-15.7-7.4c-7-4.7-9.2-8.1-17.7-12.4c-1.8-0.9-3.3-1.6-4.3-2c4.4,2.9,7.7,5.6,9.8,7.5
		c3,2.8,4.3,4.4,7.7,6.6c1.8,1.1,2.3,1.2,5.5,3.3c2.6,1.6,3.4,2.3,5.4,3.4c0,0,2.3,1.3,5.3,2.4c6.6,2.5,14.3,3.3,21.4,3.4
		c0.2,0.3,0.6,1,1,1.8c2.1,4,2.4,6.3,4.4,9.9c0.8,1.5,1.3,2.1,1.8,2.5c0.9,1,1.3,1.1,1.9,1.9c0.4,0.7,0.9,1.6,0.8,3.2
		c-0.3,0.1-0.8,0.3-1.5,0.4c-1.6,0.4-2.9,0.4-3.3,0.5c-5.9,0.9-12,1.9-18,1.2c-2.4-0.3-4.9-0.9-7.4-1.4c-7.6-1.8-15.2-3.5-22.3-6.5
		c-2.9-1.2-5.6-2.6-8.7-3.2c3,2.1,5.9,4.2,9.2,5.4c1.3,0.4,2.6,0.8,4.1,1.3c4.4,1.5,8.4,4.2,12.9,5.7c5.1,1.8,10.5,2,15.7,2.2
		c2.9,0.1,5.7,0.2,8.5-0.1c1.1-0.1,2.1-0.3,3.2-0.4c1.6-0.2,3.3-0.2,4.9-0.2c2.6,0,5.2,0.1,7.8,0c1.4,2.6,3.2,5.2,5.3,7.3
		c0.7,0.7,1.3,1.3,1.8,2c0.7,0.9,1,2,1.5,3c0.8,1.3,2.3,2.8,3.6,3.5c0.2,1.4-0.7,2.9-1.9,3.7s-2.6,1.3-4.1,1.8
		c-7.8,2.3-15.9,4-24.1,4c-4.1,0-8-0.4-12.1-0.9c-1.9-0.2-3.8-0.4-5.7-0.5c-1.1-0.1-2.2-0.2-3.2-0.6c-1.3-0.3-2.6-1-4-1.5
		c-2.6-1.1-5.4-2-8.1-2.8c2.9,1.4,5.7,2.8,8.5,4.2c1.8,0.9,3.6,1.8,5.5,2.4c2.8,0.9,5.7,1.3,8.6,1.5c11.7,1,23.4,0.2,34.9-2.3
		c1.3-0.3,2.8-0.7,4-1.3c1.4-0.8,2.9-2.3,4.5-2.3c3.9,4.4,7.8,8.9,10.7,14.1c1.2,2.2,2.6,4.7,4.8,5.9c-4.5,4.2-11.3,4.1-17.4,5.1
		c-4.3,0.7-8.5,2-12.8,2.2c-2.3,0.1-4.6-0.1-6.9-0.4c-3.4-0.3-6.7-0.7-10.1-1.1c-5.9-0.7-11.9-1.3-17.3-3.7
		c7.4,2.8,14.7,5.4,22.6,6.7c4.2,0.7,8.4,0.9,12.5,1.1c2.4,0.1,4.9,0.1,7.4-0.1c2.8-0.2,5.5-0.8,8.2-1.3c4.5-0.9,9-1.8,13.5-2.6
		c0.8-0.1,1.5-0.3,2.1-0.8c0.3-0.2,0.6-0.7,1-0.7c0.6-0.1,0.9,0.3,1.2,0.8c3.5,4.3,7,8.5,10.7,12.8c0.7,0.8,1.3,1.6,1.1,2.6
		c-0.2,1.2-1.7,1.9-2.8,2.3c-4.3,1.4-8.6,2.9-13,3.6c-7.7,1.4-15.5,0.9-23.3,0.4c-2.8-0.2-5.6-0.3-8.4-0.9c-2.3-0.4-4.5-1.1-6.7-1.6
		c-4.6-1.3-9.4-2.6-14-4c8.8,5.1,18.9,7.3,28.8,9.5c1.9,0.4,3.6,0.8,5.5,0.9c2,0.1,4-0.1,5.9-0.3c4.7-0.6,9.5-1.1,14.2-1.7
		c5.6-0.7,11.2-1.3,16.5-3.3c0.4-0.1,1.1-0.4,1.2-0.9c2.3,3.3,4.8,6.4,7.7,9.1c0.4,0.4,1,1,1.4,1.5c0.3,0.4,0.6,0.9,0.9,1.4
		c0.5,0.9,1.1,1.8,1.8,2.6c0.9,1.1,1.8,2.1,2.6,3.2c1.6,1.9,3.4,3.5,4.8,5.5c0.5,0.8,1.4,1.3,2.2,2c1.2,1.1,2.1,2.5,3.1,3.9
		c0.9,1.2,2,2.3,3.2,3.2c0.5,0.4,1.2,0.9,1.6,1.5c0.4,0.7,0.7,1.4,1.1,2.1c0.3,0.4,0.7,0.8,1,1.2c1.2,1.2,2.4,2.5,3.7,3.7
		c0.4,0.4,0.8,0.8,1.1,1.2c0.2,0.4,0.4,0.9,0.7,1.3c0.5,1.1,1.4,2.2,2.1,3.2c0.3,0.4,0.7,0.9,1,1.3c1.5,2.1,3.1,4.2,4.6,6.4
		c0.2,0.3,0.4,0.7,0.7,1c0.7,1.2,0.7,2.1,0.8,3.4c0.2,1.8,0.4,1.8,0.9,5.1c0.1,0.9,0.2,1.4,0,2.2s-0.4,0.9-0.5,1.4
		c0,0.5,0.1,1,0.5,1.9c0.1,0.3,0.2,0.7,0.4,1c0.3,0.5,0.8,1,2.4,2.4c0.5,0.4,1.1,1,1.8,1.3c1.4,0.8,2.4,0.9,2.9,0.9
		c0.7,0,1-0.1,1.2-0.1c0.1,0,0.5-0.2,1-0.8c1.3-1.3,1.9-3.9,1.9-3.9c0.8-2,1-4.4-0.2-6.2c-0.3-0.4-0.7-0.8-1-1.2
		c-0.5-0.7-1.1-1.4-1.5-2.1c-0.4-0.7-1-1.4-1.4-2.1c-1.2-1.8-2.3-3.5-3.5-5.2c-0.2-0.3-0.4-0.7-0.7-1.1c-0.2-0.4-0.3-0.9-0.6-1.2
		c-0.7-1.4-2-2.4-2.9-3.9c-0.7-1.1-0.8-2-1.5-3.1c-1.1-1.5-2.2-3-3.4-4.4c-0.3-0.4-0.8-0.9-1-1.3c-0.2-0.3-0.3-0.8-0.5-1.1
		c-0.8-1.3-2.1-2.1-3-3.3c-0.7-0.9-1-1.9-1.5-2.8c-1-1.4-2.5-2.5-3.5-4c-0.4-0.5-0.8-1.3-1.2-1.9c-0.3-0.4-0.8-0.8-1.1-1.2
		c-0.4-0.5-0.8-1.2-1.1-1.9c-0.3-0.7-0.8-1.3-1.3-1.9c-0.4-0.4-1.1-0.5-1.7-1c-1.2-0.9-2.1-2.2-3.1-3.3c-1.6-2-3.5-3.7-5.4-5.5
		c-5.5-5.5-10-12.1-16-17c5.9-6.2,10.3-14,14.5-21.5c4.4-8,8.6-16.4,11.1-25.3c2.9-10.5,3.4-21.5,2.4-32.3
		c-3.1,16.2-5.3,32.7-11.9,47.6c-4,9.1-9.6,17.5-16.5,24.8c-0.8,0.8-1.5,1.5-2.5,1.9c-1.6,0.4-3.3-0.3-4.5-1.6
		c-1.1-1.2-1.8-2.9-2.5-4.3c-1.3-2.5-3.2-4.7-5.4-6.6c-0.3-0.3-0.7-0.6-0.9-1c-0.4-0.9,0.3-2,0.9-2.8c7.6-9.5,13.3-20.2,18.3-31.4
		c5.7-13,10.3-27.2,8.5-41.2c-1.9,11.4-4.5,22.7-8,33.7c-1.2,3.7-2.4,7.4-4.2,10.9c-1.9,3.7-4.2,7.3-6.5,10.7c-2.5,3.6-5,7.4-7.5,11
		c-1.2,1.8-2.5,3.6-4.5,4.5c-1.1-0.7-2.1-1.5-3.1-2.4c-1.1-1-2.1-2.2-3.1-3.4c-3.6-4.6-7.3-9.2-10.8-14c0.8-2.9,3.6-4.5,5.8-6.5
		c1.8-1.6,3.1-3.7,4.4-5.8c3.5-5.5,7-11,9.8-16.9c1.1-2.3,2-4.7,2.9-7.3c1.5-4.2,3-8.4,4-12.8c2.5-10.7,2.5-21.9,2.6-32.9
		c0-0.6-0.1-1.2-0.7-1.2c-0.7,0.9-0.4,2.1-0.2,3.2c0.3,2.1,0,4.2-0.3,6.3c-1.5,9.6-3.7,19-5.9,28.4c-2.1,8.6-4.4,17.5-10.2,24.1
		c-1.5,1.6-3.2,3.2-4.5,5.1c-1.3,1.9-2.3,4-3.6,5.8c-1.5,2.3-3.5,4.2-5.4,6.2c-4.4-5.2-7.5-9.2-7.8-10c-0.3-0.8-0.7-1.6-0.7-1.6
		c-0.1-0.3-0.2-0.4-0.2-0.5c-0.6-1.3-4-3.6-4.5-5.6c-0.7-2.5,1.4-4.9,2.9-7c1.5-2.2,2.6-4.7,3.6-7.3c4.3-10.3,8.5-20.7,10.6-31.7
		c2.3-12.2,1.9-25-1.3-37.1c-1.1,4.2,0.9,8.4,1.3,12.6c0.2,2.8-0.1,5.4-0.4,8.1s-0.7,5.5-1.1,8.2c-0.6,4.5-1.1,8.9-2.4,13.3
		c-1.2,4.2-3.1,8.1-4.4,12.4c-0.8,2.4-1.3,5-2.1,7.3c-2.1,5.9-5.9,11-9.8,16c-1.8-0.9-3.5-2.4-4.4-4.2c-0.9-1.8-1.4-3.6-2.2-5.4
		c-1-2.4-2.4-4.6-4.1-6.6c-1.3-1.5-2.8-3.1-3.3-5c2.2-5.6,4.7-11.1,7.7-16.4c0,0,1.6-2.9,2.8-5.6l0.2-0.5l0,0c0,0,3.2-7.4,4.4-14.3
		c0.7-3.7,0.2-9.8-0.6-22c-0.3-4.3-0.4-5.6-0.7-7.2c-0.8-4.7-2.4-9.3-4-13.9c-0.3-0.9-0.7-1.9-1.2-2.6c-0.8,1.9-0.1,4,0.3,5.8
		c2.1,8,2.8,16.4,3.1,24.7c0.4,9.6,0.7,19.5-3,28.3c-1.5,3.6-3.6,7-5.7,10.3c-1.6,2.6-3.3,5.3-5.1,7.9c-0.2-0.1-0.6-0.4-0.9-0.8
		c-0.8-0.8-1.2-1.5-1.5-2.1c-0.3-0.5-0.4-0.9-0.7-1.2c-0.7-1.4-0.7-2.1-1.1-3.3c-0.3-0.8-0.6-1.3-1.1-2.2c-1-1.8-1.8-2.6-2.2-3.3
		c-0.8-1.2-1.5-3.1-1.1-6.6c1.2-2.1,2.1-4,2.6-5.2c0.8-1.8,1-2.6,2.3-5.6c0.6-1.3,1.2-2.8,1.8-4.2c1.6-4.2,2.4-8.6,3.1-13
		c0.4-3.2,0.9-6.4,1-9.6c0-2.5-0.1-4.3-0.3-7.3c-1-12.5-3.2-18.6-3.7-20.2c-0.2-0.5-0.3-0.9-0.4-1.1c0.1,0.8,0.2,1.9,0.4,3.3
		c0.6,4.6,1,9.2,1.1,11.9c0.7,11.8-1.3,22.9-2.2,28c-0.3,2.3-0.9,4.5-1.5,6.7c-1.3,4.4-3.4,8.4-5.5,12.4c-0.9-1.2-1.6-2.5-2.5-3.7
		c-0.9-1.3-1.8-2.5-2.6-3.7c-1.2-1.1-3-2.9-4.4-5.5c-0.3-0.5-1.7-3.1-2.2-6.6c-0.1-0.9-0.7-4.4,0.3-8.9c0.7-3.2,1.9-5.4,2.1-5.9
		c4.2-9.4,5.6-20.5,1.8-29.9c0.3,4,0.3,7.2,0.3,9.6c0,0-0.1,9-4,17.9c-0.1,0.3-0.4,1-1,1c-0.9,0.1-1.6-1.3-1.9-1.6
		c-1.1-1.9-0.9-3.6-1-5.3c0-2.5-0.4-2.6-1.1-6.6c-0.7-4.3-2.9-21.1-5.5-44c0,0.7-0.1,1.8-0.2,3.1c-0.1,2.6-0.4,8.5,0.2,20
		c0.6,10.9,1.5,19.6,2.2,25.3c0.1,0.9,0.2,1.7,0.2,2.2c-0.7-0.1-1.2-0.2-1.9-0.4l0.6,0.4l0,0l0,0c-3.9-7.2-7.8-14.3-11.7-21.3
		c0,0.9,0.2,2.2,0.7,3.7c0.6,1.8,1.2,2.6,2.2,4.4c0.4,0.8,2.6,4.5,4.4,8.8c0.8,1.9,0.9,2.5,1.8,3.7c1.3,2.1,2.4,2.9,3.4,3.9
		c2,2.1,2.5,5.4,3.6,12.2c0.6,3.3,1.1,7.7,1.1,7.7l0,0c0,0,0.4,1.9,0,2.2s-1.5-0.5-1.8-0.8c-6.7-5.2-15.5-14.3-15.5-14.3
		c-1.7-1.8-4.2-4.2-7.6-6.7c0.7,1.4,1.6,3.4,3.2,5.6c1.8,2.6,3.4,4.4,4.4,5.5c5.7,6.3,16.7,14.7,17.6,15.4c0.4,0.2,0.9,0.3,1.3,0.5
		c3.3,2.8,8.4,8,10.8,16C200.9,309.5,201.2,311.1,201.5,312.8z"/>
</g>
<rect x="364.3" y="194.7" transform="matrix(0.5 -0.866 0.866 0.5 -39.0505 464.7422)" class="st3" width="37.4" height="143"/>
</svg>
