<?xml version="1.0" encoding="UTF-8" standalone="no"?>
<svg
   xmlns:dc="http://purl.org/dc/elements/1.1/"
   xmlns:cc="http://creativecommons.org/ns#"
   xmlns:rdf="http://www.w3.org/1999/02/22-rdf-syntax-ns#"
   xmlns:svg="http://www.w3.org/2000/svg"
   xmlns="http://www.w3.org/2000/svg"
   viewBox="0 0 341.33334 341.33334"
   height="341.33334"
   width="341.33334"
   xml:space="preserve"
   id="svg2"
   version="1.1"><metadata
     id="metadata8"><rdf:RDF><cc:Work
         rdf:about=""><dc:format>image/svg+xml</dc:format><dc:type
           rdf:resource="http://purl.org/dc/dcmitype/StillImage" /></cc:Work></rdf:RDF></metadata><defs
     id="defs6"><clipPath
       id="clipPath26"
       clipPathUnits="userSpaceOnUse"><path
         id="path24"
         d="M 0,256 H 256 V 0 H 0 Z" /></clipPath></defs><g
     transform="matrix(1.3333333,0,0,-1.3333333,0,341.33333)"
     id="g10"><g
       transform="translate(207.2335,175.1795)"
       id="g12"><path
         id="path14"
         style="fill:#00f5d4;fill-opacity:1;fill-rule:nonzero;stroke:none"
         d="m 0,0 -21.115,26.648 3.919,3.106 L 3.919,3.105 Z" /></g><g
       transform="translate(207.2335,175.1795)"
       id="g16"><path
         id="path18"
         style="fill:none;stroke:#4cc9f0;stroke-width:5;stroke-linecap:butt;stroke-linejoin:miter;stroke-miterlimit:10;stroke-dasharray:none;stroke-opacity:1"
         d="m 0,0 -21.115,26.648 3.919,3.106 L 3.919,3.105 Z" /></g><g
       id="g20"><g
         clip-path="url(#clipPath26)"
         id="g22"><g
           transform="translate(134.2544,83.7192)"
           id="g28"><path
             id="path30"
             style="fill:#ffd60a;fill-opacity:1;fill-rule:nonzero;stroke:none"
             d="m 0,0 c 0,0 1.538,0.653 4.562,2.222 25.184,11.059 36.184,47.059 14.184,65.059 -6,5 -14,11 -22,5 18,-5 28,-25 19,-42 -5,-10 -14,-17 -25,-18 -16,-2 -32,5 -40,19 11,-13 32,-20 48,-12 12,6 18,21 12,33 -3,4 -6,8 -11,9 -5,1 -9,-1 -12,-5 -3,-4 2,-8 2,-12 1,-4 -4,-4 -8,-4 -8,1 -11,8 -12,15 0,10 7,20 17,24 12,4 25,2 34,-6 9,-9 15,-21 14,-34 -2,-15 -12,-27 -24.884,-34.824 C 3.533,1.107 0.897,-0.104 0.897,-0.104 0.622,-0.322 0.218,-0.275 0,0" /></g><g
           transform="translate(169.3815,130.5252)"
           id="g32"><path
             id="path34"
             style="fill:#ffd60a;fill-opacity:1;fill-rule:nonzero;stroke:none"
             d="m 0,0 c -1.381,17.475 -15.381,32.475 -33.381,35.475 -17,2 -34,-10 -33,-28 1,-9 8,-18 18,-17 10,1 6,11 5,17 -1,6 11,5 15,1 6,-7 7,-16 2,-24 -5,-7 -11,-13 -20,-14 -9,-1 -17,1 -24,6 -18,11 -19,36 -9,54 -6,-16 -6,-35 8,-47 6,-4 14,-9 21,-4 -11,4 -20,12 -22,24 -1,10 2,20 10,27 11,10 27,12 40,6 18,-8 28,-28 24.999,-48.395 -0.633,-4.214 -0.907,-5.697 -0.907,-5.697 0.218,-0.275 0.171,-0.679 -0.104,-0.897 0,0 0.388,6.777 -0.078,11.24 C 1.064,-2.812 0.328,-3.688 0.328,-3.688 0.276,-3.883 0.174,-2.221 0,0" /></g><g
           transform="translate(144.3011,196.2364)"
           id="g36"><path
             id="path38"
             style="fill:#00f5d4;fill-opacity:1;fill-rule:nonzero;stroke:none"
             d="m 0,0 c -0.11,0.267 0.075,0.661 0.432,0.874 0,0 3.871,3.062 7.736,6.124 3.864,3.062 7.729,6.125 7.729,6.125 0.275,0.218 0.679,0.171 0.897,-0.104 l 50.753,-64.053 c 0.218,-0.275 0.172,-0.679 -0.104,-0.897 L 51.985,-64.18 c -0.275,-0.218 -0.679,-0.171 -0.897,0.104" /></g><g
           transform="translate(175.0109,116.0133)"
           id="g40"><path
             id="path42"
             style="fill:#00f5d4;fill-opacity:1;fill-rule:nonzero;stroke:none"
             d="m 0,0 c 0,0 -0.76,1.122 -1.166,7.968 0.155,22.019 -13.845,44.019 -36.845,47.019 -14,2 -27,-3 -36,-14 -10,-13 -6,-28 -1,-41 -9,5 -12,16 -12,25 -2,20 14,39 33.819,41.415 5.575,1.569 8.339,3.141 10.272,4.672 3.864,3.063 7.729,6.125 7.729,6.125 0.275,0.218 0.679,0.171 0.897,-0.104 0,0 7.137,-9.008 16.059,-20.267 1.476,-1.862 2.988,-3.77 3.785,-4.88 0.798,-1.11 2.342,-2.882 4.426,-5.331 2.495,-3.242 4.235,-5.488 5.84,-7.522 C 6.745,25.302 16.459,13.042 16.459,13.042 16.677,12.767 16.631,12.363 16.355,12.145 L 0.897,-0.104 C 0.622,-0.322 0.218,-0.275 0,0" /></g><g
           transform="translate(113.8761,67.5722)"
           id="g44"><path
             id="path46"
             style="fill:#ef233c;fill-opacity:1;fill-rule:nonzero;stroke:none"
             d="m 0,0 c 0,0 -9.715,12.26 -20.643,26.053 -1.54,1.938 -2.048,2.899 -2.917,4.003 -4.316,4.372 -6.316,9.372 -11.124,13.712 -1.489,1.88 -2.929,3.699 -4.298,5.429 -6.815,8.601 -11.772,14.856 -11.772,14.856 -0.218,0.275 -0.171,0.679 0.104,0.897 0,0 3.865,3.062 7.73,6.124 3.864,3.063 6.301,-7.924 6.301,-7.924 4.743,-23.722 28.743,-42.722 53.743,-34.722 23,8 30,34 18,54 13,-6 16,-23 13,-36 -4,-14 -16,-22 -26.934,-29.584 -4.572,-2.723 -4.731,-3.802 -4.731,-3.802 0.218,-0.275 0.172,-0.679 -0.104,-0.897 L 0.897,-0.104 C 0.622,-0.322 0.218,-0.275 0,0" /></g><g
           transform="translate(93.4979,51.4251)"
           id="g48"><path
             id="path50"
             style="fill:#ef233c;fill-opacity:1;fill-rule:nonzero;stroke:none"
             d="m 0,0 -50.754,64.053 c -0.218,0.275 -0.171,0.679 0.104,0.897 l 15.459,12.249 c 0.275,0.218 0.679,0.171 0.897,-0.104 L 16.459,13.042 c 0.218,-0.275 0.172,-0.679 -0.104,-0.897 L 0.897,-0.104 C 0.622,-0.322 0.218,-0.275 0,0" /></g><g
           transform="translate(86.3521,41.121)"
           id="g52"><path
             id="path54"
             style="fill:none;stroke:#4cc9f0;stroke-width:5;stroke-linecap:butt;stroke-linejoin:miter;stroke-miterlimit:10;stroke-dasharray:none;stroke-opacity:1"
             d="m 0,0 -57.136,72.108 c -4.099,5.173 -3.22,12.759 1.953,16.857 l 120.702,95.641 c 5.173,4.098 12.759,3.22 16.858,-1.953 l 57.136,-72.108 c 4.099,-5.173 3.22,-12.759 -1.953,-16.858 L 16.858,-1.953 C 11.685,-6.052 4.099,-5.173 0,0 Z" /></g></g></g></g></svg>