<?xml version="1.0" encoding="utf-8"?>
<!-- Generator: Adobe Illustrator 26.0.1, SVG Export Plug-In . SVG Version: 6.00 Build 0)  -->
<svg version="1.1" id="Layer_1" xmlns="http://www.w3.org/2000/svg" xmlns:xlink="http://www.w3.org/1999/xlink" x="0px" y="0px"
	 viewBox="0 0 64 64" enable-background="new 0 0 64 64" xml:space="preserve">
<path fill="#046938" stroke="#010101" stroke-width="0.15" stroke-miterlimit="10" d="M54.2,18.4L36.3,8.1c-1.1-0.6-2.5-0.3-3.2,0.8
	L13.9,42.3c-0.6,1.1-0.3,2.5,0.8,3.2l17.9,10.3c1.1,0.6,2.5,0.3,3.2-0.8L55,21.6C55.7,20.5,55.3,19.1,54.2,18.4z"/>
<rect x="44" y="7.9" transform="matrix(0.5 -0.866 0.866 0.5 12.2539 45.0227)" fill="#046938" stroke="#010101" stroke-width="0.15" stroke-miterlimit="10" width="2.2" height="8"/>
<rect x="27.4" y="30.3" transform="matrix(0.5 -0.866 0.866 0.5 -19.5429 45.8208)" fill="#33B34A" stroke="#010101" stroke-width="0.15" stroke-miterlimit="10" width="5" height="19"/>
<rect x="30.3" y="25.1" transform="matrix(0.5 -0.866 0.866 0.5 -13.6018 45.688)" fill="#33B34A" stroke="#010101" stroke-width="0.15" stroke-miterlimit="10" width="5" height="19"/>
<rect x="24.4" y="35.5" transform="matrix(0.5 -0.866 0.866 0.5 -25.5196 45.8135)" fill="#33B34A" stroke="#010101" stroke-width="0.15" stroke-miterlimit="10" width="5" height="19"/>
<rect x="33.4" y="20" transform="matrix(0.5 -0.866 0.866 0.5 -7.6332 45.7884)" fill="#33B34A" stroke="#010101" stroke-width="0.15" stroke-miterlimit="10" width="5" height="19"/>
<rect x="36.3" y="14.9" transform="matrix(0.5 -0.866 0.866 0.5 -1.7376 45.7622)" fill="#33B34A" stroke="#010101" stroke-width="0.15" stroke-miterlimit="10" width="5" height="19"/>
<g>
	<path fill="#86C442" stroke="#06A64F" stroke-width="0.25" stroke-miterlimit="10" d="M30.9,43.8c-2.6,0.1-5.3,0.1-7.9-0.2
		c-0.7-0.1-1.4-0.2-2.2-0.3c-4.7-1.1-8.4-5.1-9.9-9.7s-1-9.6,0.5-14.2c0.2-0.6,0.4-1.3,0.6-1.9c0.1-0.5,2.8-7,3.6-8.5
		c-0.2,0.6,0.2,1.3,0.7,1.8c1,1,2.1,1.6,3.3,2.3c0.8,0.5,1.6,0.9,2.4,1.3c4.5,2.5,9.3,5.3,11.8,9.8c1.1,2,1.7,4.2,1.8,6.4
		c0,0.9,0,1.9-0.1,2.8c-0.4,3.6-1.3,7.3-3.6,10L30.9,43.8z"/>
	<path fill="#9DCE71" d="M17.7,25.2c-0.1,0-0.2,0-0.3,0c-0.5,0-0.9-0.1-1.2-0.3c-0.8-0.4-1.4-1.1-2.8-2.5c-0.1-0.1-0.2-0.2-0.3-0.3
		c0.3,0.5,0.5,0.7,0.6,0.9c0,0,0,0,0.4,0.4c0,0,0.1,0.1,0.1,0.1c0.1,0.1,0.2,0.2,0.3,0.3c0.1,0.1,0.3,0.3,0.4,0.4
		c0.3,0.3,0.3,0.3,0.3,0.3c0.4,0.4,0.9,0.6,1,0.7c0.8,0.4,1.1,0.3,1.6,0.6c0.1,0.1,0.4,0.3,0.5,0.6c0,0.1,0,0.1,0.1,0.2
		c0.1,0.2,0.1,0.2,0.3,0.6c0,0,0.1,0.1,0.2,0.4c0,0.1,0.1,0.1,0.1,0.2c0,0.1,0,0.3,0,0.3c-0.6,0.1-1.2,0.1-1.8,0
		c-0.3-0.1-1.1-0.3-2.1-1c-0.9-0.6-1.2-1.1-2.4-1.7c-0.2-0.1-0.4-0.2-0.6-0.3c0.6,0.4,1,0.7,1.3,1c0.4,0.4,0.6,0.6,1,0.9
		c0.2,0.1,0.3,0.2,0.7,0.4c0.4,0.2,0.5,0.3,0.7,0.5c0,0,0.3,0.2,0.7,0.3c0.9,0.3,1.9,0.4,2.9,0.5c0,0,0.1,0.1,0.1,0.2
		c0.3,0.5,0.3,0.8,0.6,1.3c0.1,0.2,0.2,0.3,0.2,0.3c0.1,0.1,0.2,0.1,0.2,0.2c0.1,0.1,0.1,0.2,0.1,0.4c0,0-0.1,0-0.2,0.1
		c-0.2,0.1-0.4,0.1-0.4,0.1c-0.8,0.1-1.6,0.2-2.4,0.2c-0.3,0-0.7-0.1-1-0.2c-1-0.2-2-0.5-3-0.9c-0.4-0.2-0.7-0.4-1.2-0.4
		c0.4,0.3,0.8,0.6,1.2,0.7c0.2,0.1,0.4,0.1,0.5,0.2c0.6,0.2,1.1,0.6,1.7,0.8c0.7,0.2,1.4,0.3,2.1,0.3c0.4,0,0.8,0,1.1,0
		c0.1,0,0.3,0,0.4-0.1c0.2,0,0.4,0,0.7,0c0.4,0,0.7,0,1,0c0.2,0.4,0.4,0.7,0.7,1c0.1,0.1,0.2,0.2,0.2,0.3c0.1,0.1,0.1,0.3,0.2,0.4
		c0.1,0.2,0.3,0.4,0.5,0.5c0,0.2-0.1,0.4-0.2,0.5c-0.2,0.1-0.4,0.2-0.5,0.2c-1,0.3-2.1,0.5-3.2,0.5c-0.5,0-1.1-0.1-1.6-0.1
		c-0.2,0-0.5-0.1-0.8-0.1c-0.1,0-0.3,0-0.4-0.1c-0.2,0-0.4-0.1-0.5-0.2c-0.4-0.1-0.7-0.3-1.1-0.4c0.4,0.2,0.8,0.4,1.1,0.6
		c0.2,0.1,0.5,0.2,0.7,0.3c0.4,0.1,0.8,0.2,1.1,0.2c1.6,0.1,3.1,0,4.6-0.3c0.2,0,0.4-0.1,0.5-0.2c0.2-0.1,0.4-0.3,0.6-0.3
		c0.5,0.6,1,1.2,1.4,1.9c0.2,0.3,0.4,0.6,0.6,0.8c-0.6,0.6-1.5,0.5-2.3,0.7c-0.6,0.1-1.1,0.3-1.7,0.3c-0.3,0-0.6,0-0.9-0.1
		c-0.5,0-0.9-0.1-1.3-0.1c-0.8-0.1-1.6-0.2-2.3-0.5c1,0.4,2,0.7,3,0.9c0.6,0.1,1.1,0.1,1.7,0.1c0.3,0,0.7,0,1,0
		c0.4,0,0.7-0.1,1.1-0.2c0.6-0.1,1.2-0.2,1.8-0.4c0.1,0,0.2,0,0.3-0.1c0,0,0.1-0.1,0.1-0.1c0.1,0,0.1,0,0.2,0.1
		c0.5,0.6,0.9,1.1,1.4,1.7c0.1,0.1,0.2,0.2,0.1,0.4c0,0.2-0.2,0.2-0.4,0.3c-0.6,0.2-1.1,0.4-1.7,0.5c-1,0.2-2.1,0.1-3.1,0.1
		c-0.4,0-0.7,0-1.1-0.1c-0.3-0.1-0.6-0.1-0.9-0.2c-0.6-0.2-1.2-0.4-1.9-0.5c1.2,0.7,2.5,1,3.8,1.3c0.2,0.1,0.5,0.1,0.7,0.1
		c0.3,0,0.5,0,0.8,0c0.6-0.1,1.3-0.1,1.9-0.2c0.7-0.1,1.5-0.2,2.2-0.4c0.1,0,0.1-0.1,0.2-0.1c0.3,0.4,0.6,0.8,1,1.2
		c0.1,0.1,0.1,0.1,0.2,0.2c0,0.1,0.1,0.1,0.1,0.2c0.1,0.1,0.1,0.2,0.2,0.4c0.1,0.1,0.2,0.3,0.4,0.4c0.2,0.2,0.5,0.5,0.6,0.7
		c0.1,0.1,0.2,0.2,0.3,0.3c0.2,0.1,0.3,0.3,0.4,0.5c0.1,0.2,0.3,0.3,0.4,0.4c0.1,0.1,0.2,0.1,0.2,0.2c0.1,0.1,0.1,0.2,0.1,0.3
		c0,0.1,0.1,0.1,0.1,0.2c0.2,0.2,0.3,0.3,0.5,0.5c0.1,0.1,0.1,0.1,0.1,0.2c0,0.1,0.1,0.1,0.1,0.2c0.1,0.1,0.2,0.3,0.3,0.4
		c0,0.1,0.1,0.1,0.1,0.2c0.2,0.3,0.4,0.6,0.6,0.8c0,0,0.1,0.1,0.1,0.1c0.1,0.2,0.1,0.3,0.1,0.5c0,0.2,0.1,0.2,0.1,0.7
		c0,0.1,0,0.2,0,0.3c0,0.1-0.1,0.1-0.1,0.2c0,0.1,0,0.1,0.1,0.2c0,0,0,0.1,0.1,0.1c0,0.1,0.1,0.1,0.3,0.3c0.1,0.1,0.1,0.1,0.2,0.2
		c0.2,0.1,0.3,0.1,0.4,0.1c0.1,0,0.1,0,0.2,0c0,0,0.1,0,0.1-0.1c0.2-0.2,0.2-0.5,0.2-0.5c0.1-0.3,0.1-0.6,0-0.8
		c0-0.1-0.1-0.1-0.1-0.2c-0.1-0.1-0.1-0.2-0.2-0.3c-0.1-0.1-0.1-0.2-0.2-0.3c-0.2-0.2-0.3-0.5-0.5-0.7c0,0-0.1-0.1-0.1-0.1
		c0-0.1,0-0.1-0.1-0.2c-0.1-0.2-0.3-0.3-0.4-0.5c-0.1-0.1-0.1-0.3-0.2-0.4c-0.1-0.2-0.3-0.4-0.5-0.6c0-0.1-0.1-0.1-0.1-0.2
		c0,0,0-0.1-0.1-0.1c-0.1-0.2-0.3-0.3-0.4-0.4c-0.1-0.1-0.1-0.2-0.2-0.4c-0.1-0.2-0.3-0.3-0.5-0.5c-0.1-0.1-0.1-0.2-0.2-0.2
		c0-0.1-0.1-0.1-0.1-0.2c-0.1-0.1-0.1-0.2-0.1-0.2c0-0.1-0.1-0.2-0.2-0.2c-0.1-0.1-0.1-0.1-0.2-0.1c-0.2-0.1-0.3-0.3-0.4-0.4
		c-0.2-0.3-0.5-0.5-0.7-0.7c-0.7-0.7-1.3-1.6-2.1-2.3c0.8-0.8,1.4-1.9,1.9-2.9c0.6-1.1,1.1-2.2,1.5-3.4c0.4-1.4,0.5-2.9,0.3-4.3
		c-0.4,2.1-0.7,4.3-1.6,6.3c-0.5,1.2-1.3,2.3-2.2,3.3c-0.1,0.1-0.2,0.2-0.3,0.2c-0.2,0.1-0.4,0-0.6-0.2c-0.1-0.2-0.2-0.4-0.3-0.6
		c-0.2-0.3-0.4-0.6-0.7-0.9c0,0-0.1-0.1-0.1-0.1c-0.1-0.1,0-0.3,0.1-0.4c1-1.3,1.8-2.7,2.4-4.2c0.8-1.7,1.4-3.6,1.1-5.5
		c-0.2,1.5-0.6,3-1.1,4.5c-0.2,0.5-0.3,1-0.6,1.4c-0.2,0.5-0.6,1-0.9,1.4c-0.3,0.5-0.7,1-1,1.5c-0.2,0.2-0.3,0.5-0.6,0.6
		c-0.1-0.1-0.3-0.2-0.4-0.3c-0.1-0.1-0.3-0.3-0.4-0.5c-0.5-0.6-1-1.2-1.4-1.9c0.1-0.4,0.5-0.6,0.8-0.9c0.2-0.2,0.4-0.5,0.6-0.8
		c0.5-0.7,0.9-1.5,1.3-2.3c0.1-0.3,0.3-0.6,0.4-1c0.2-0.6,0.4-1.1,0.5-1.7c0.3-1.4,0.3-2.9,0.4-4.4c0-0.1,0-0.2-0.1-0.2
		c-0.1,0.1-0.1,0.3,0,0.4c0,0.3,0,0.6,0,0.8c-0.2,1.3-0.5,2.5-0.8,3.8c-0.3,1.1-0.6,2.3-1.4,3.2c-0.2,0.2-0.4,0.4-0.6,0.7
		c-0.2,0.2-0.3,0.5-0.5,0.8c-0.2,0.3-0.5,0.6-0.7,0.8c-0.6-0.7-1-1.2-1-1.3c0-0.1-0.1-0.2-0.1-0.2c0,0,0-0.1,0-0.1
		c-0.1-0.2-0.5-0.5-0.6-0.7c-0.1-0.3,0.2-0.7,0.4-0.9c0.2-0.3,0.4-0.6,0.5-1c0.6-1.4,1.1-2.7,1.4-4.2c0.3-1.6,0.2-3.3-0.2-4.9
		c-0.1,0.6,0.1,1.1,0.2,1.7c0,0.4,0,0.7-0.1,1.1c0,0.4-0.1,0.7-0.1,1.1c-0.1,0.6-0.1,1.2-0.3,1.8c-0.2,0.6-0.4,1.1-0.6,1.7
		c-0.1,0.3-0.2,0.7-0.3,1c-0.3,0.8-0.8,1.5-1.3,2.1c-0.2-0.1-0.5-0.3-0.6-0.6c-0.1-0.2-0.2-0.5-0.3-0.7c-0.1-0.3-0.3-0.6-0.5-0.9
		c-0.2-0.2-0.4-0.4-0.4-0.7c0.3-0.7,0.6-1.5,1-2.2c0,0,0.2-0.4,0.4-0.7l0-0.1l0,0c0,0,0.4-1,0.6-1.9c0.1-0.5,0-1.3-0.1-2.9
		c0-0.6-0.1-0.7-0.1-1c-0.1-0.6-0.3-1.2-0.5-1.8c0-0.1-0.1-0.2-0.2-0.4c-0.1,0.2,0,0.5,0,0.8c0.3,1.1,0.4,2.2,0.4,3.3
		c0.1,1.3,0.1,2.6-0.4,3.8c-0.2,0.5-0.5,0.9-0.8,1.4c-0.2,0.4-0.4,0.7-0.7,1.1c0,0-0.1-0.1-0.1-0.1c-0.1-0.1-0.2-0.2-0.2-0.3
		c0-0.1-0.1-0.1-0.1-0.2c-0.1-0.2-0.1-0.3-0.1-0.4c0-0.1-0.1-0.2-0.1-0.3c-0.1-0.2-0.2-0.4-0.3-0.4c-0.1-0.2-0.2-0.4-0.1-0.9
		c0.2-0.3,0.3-0.5,0.4-0.7c0.1-0.2,0.1-0.4,0.3-0.7c0.1-0.2,0.2-0.4,0.2-0.6c0.2-0.6,0.3-1.1,0.4-1.7c0.1-0.4,0.1-0.8,0.1-1.3
		c0-0.3,0-0.6,0-1c-0.1-1.7-0.4-2.5-0.5-2.7c0-0.1,0-0.1-0.1-0.1c0,0.1,0,0.2,0.1,0.4c0.1,0.6,0.1,1.2,0.1,1.6
		c0.1,1.6-0.2,3-0.3,3.7c0,0.3-0.1,0.6-0.2,0.9c-0.2,0.6-0.5,1.1-0.7,1.7c-0.1-0.2-0.2-0.3-0.3-0.5c-0.1-0.2-0.2-0.3-0.4-0.5
		c-0.2-0.1-0.4-0.4-0.6-0.7c0-0.1-0.2-0.4-0.3-0.9c0-0.1-0.1-0.6,0-1.2c0.1-0.4,0.2-0.7,0.3-0.8c0.6-1.2,0.7-2.7,0.2-4
		c0,0.5,0,1,0,1.3c0,0,0,1.2-0.5,2.4c0,0-0.1,0.1-0.1,0.1c-0.1,0-0.2-0.2-0.2-0.2c-0.1-0.2-0.1-0.5-0.1-0.7c0-0.3-0.1-0.4-0.1-0.9
		c-0.1-0.6-0.4-2.8-0.7-5.9c0,0.1,0,0.2,0,0.4c0,0.4-0.1,1.1,0,2.7c0.1,1.4,0.2,2.6,0.3,3.4c0,0.1,0,0.2,0,0.3c-0.1,0-0.2,0-0.2-0.1
		l0.1,0.1l0,0l0,0c-0.5-1-1-1.9-1.6-2.8c0,0.1,0,0.3,0.1,0.5c0.1,0.2,0.2,0.4,0.3,0.6c0.1,0.1,0.4,0.6,0.6,1.2
		c0.1,0.2,0.1,0.3,0.2,0.5c0.2,0.3,0.3,0.4,0.5,0.5c0.3,0.3,0.3,0.7,0.5,1.6c0.1,0.4,0.1,1,0.1,1l0,0c0,0,0.1,0.2,0,0.3
		s-0.2-0.1-0.2-0.1c-0.9-0.7-2.1-1.9-2.1-1.9c-0.2-0.2-0.6-0.6-1-0.9c0.1,0.2,0.2,0.5,0.4,0.7c0.2,0.4,0.5,0.6,0.6,0.7
		c0.8,0.8,2.2,2,2.3,2c0.1,0,0.1,0,0.2,0.1c0.4,0.4,1.1,1.1,1.4,2.1C17.6,24.8,17.7,25,17.7,25.2z"/>
</g>
<rect x="39.3" y="9.5" transform="matrix(0.5 -0.866 0.866 0.5 4.4224 45.7464)" fill="#33B34A" stroke="#010101" stroke-width="0.15" stroke-miterlimit="10" width="5" height="19"/>
</svg>
